<svg xmlns="http://www.w3.org/2000/svg" viewBox="0 0 512 512" width="512" height="512"><g transform="translate(0.0 0.0) scale(1.0)"><clipPath id="sa0"><rect x="90" y="366" width="340" height="100"/></clipPath><g clip-path="url(#sa0)"><path d="M 296 44 C 302 102 332 142 354 198 C 376 256 372 322 336 376 C 306 420 268 446 232 456 C 176 470 136 428 142 372 C 148 318 194 294 208 242 C 220 196 242 118 296 44 Z" fill="#E03A0C"/></g><clipPath id="sa1"><rect x="90" y="284" width="340" height="64"/></clipPath><g clip-path="url(#sa1)"><path d="M 296 44 C 302 102 332 142 354 198 C 376 256 372 322 336 376 C 306 420 268 446 232 456 C 176 470 136 428 142 372 C 148 318 194 294 208 242 C 220 196 242 118 296 44 Z" fill="#FF5A1F"/></g><clipPath id="sa2"><rect x="90" y="210" width="340" height="56"/></clipPath><g clip-path="url(#sa2)"><path d="M 296 44 C 302 102 332 142 354 198 C 376 256 372 322 336 376 C 306 420 268 446 232 456 C 176 470 136 428 142 372 C 148 318 194 294 208 242 C 220 196 242 118 296 44 Z" fill="#FF7A2E"/></g><clipPath id="sa3"><rect x="90" y="144" width="340" height="48"/></clipPath><g clip-path="url(#sa3)"><path d="M 296 44 C 302 102 332 142 354 198 C 376 256 372 322 336 376 C 306 420 268 446 232 456 C 176 470 136 428 142 372 C 148 318 194 294 208 242 C 220 196 242 118 296 44 Z" fill="#FFA02E"/></g><clipPath id="sa4"><rect x="90" y="88" width="340" height="38"/></clipPath><g clip-path="url(#sa4)"><path d="M 296 44 C 302 102 332 142 354 198 C 376 256 372 322 336 376 C 306 420 268 446 232 456 C 176 470 136 428 142 372 C 148 318 194 294 208 242 C 220 196 242 118 296 44 Z" fill="#FFC53D"/></g><clipPath id="sa5"><rect x="90" y="40" width="340" height="30"/></clipPath><g clip-path="url(#sa5)"><path d="M 296 44 C 302 102 332 142 354 198 C 376 256 372 322 336 376 C 306 420 268 446 232 456 C 176 470 136 428 142 372 C 148 318 194 294 208 242 C 220 196 242 118 296 44 Z" fill="#FFE49A"/></g></g></svg>